<svg viewBox="0 0 22 22" fill="none" xmlns="http://www.w3.org/2000/svg">
<path d="M6.55554 8.22217H15.4444" stroke="currentColor" stroke-width="2" stroke-linecap="round" stroke-linejoin="round"/>
<path d="M5.44446 12.6666H6.55557" stroke="currentColor" stroke-width="2" stroke-linecap="round" stroke-linejoin="round"/>
<path d="M15.4445 12.6666H16.5556" stroke="currentColor" stroke-width="2" stroke-linecap="round" stroke-linejoin="round"/>
<path d="M1 17.1111V9.78943C1 9.48854 1.06113 9.19065 1.17968 8.9141L3.75611 2.90239C4.10629 2.08531 4.90971 1.55554 5.79866 1.55554H16.2013C17.0903 1.55554 17.8937 2.08531 18.2439 2.90239L20.8203 8.9141C20.9389 9.19065 21 9.48854 21 9.78943V17.1111M1 17.1111V19.7778C1 20.146 1.29848 20.4444 1.66667 20.4444H4.77778C5.14597 20.4444 5.44444 20.146 5.44444 19.7778V17.1111M1 17.1111H5.44444M21 17.1111V19.7778C21 20.146 20.7016 20.4444 20.3333 20.4444H17.2222C16.854 20.4444 16.5556 20.146 16.5556 19.7778V17.1111M21 17.1111H16.5556M5.44444 17.1111H16.5556" stroke="currentColor" stroke-width="2"/>
</svg>
