<svg viewBox="0 0 22 22" fill="none" xmlns="http://www.w3.org/2000/svg">
<path d="M19.6684 1.81274H15.5936L16.104 6.9168C16.104 6.9168 17.1248 7.93761 18.6561 7.93761C19.7555 7.93761 20.504 7.41133 20.8389 7.11453C20.9723 6.99624 21.0211 6.81565 20.9918 6.63976L20.2725 2.32454C20.2233 2.02921 19.9678 1.81274 19.6684 1.81274Z" stroke="currentColor" stroke-width="2"/>
<path d="M15.5936 1.81274L16.1041 6.9168C16.1041 6.9168 15.0832 7.93761 13.552 7.93761C12.0208 7.93761 11 6.9168 11 6.9168V1.81274H15.5936Z" stroke="currentColor" stroke-width="2"/>
<path d="M11.0001 1.81274V6.9168C11.0001 6.9168 9.97925 7.93761 8.44802 7.93761C6.91681 7.93761 5.896 6.9168 5.896 6.9168L6.4064 1.81274H11.0001Z" stroke="currentColor" stroke-width="2"/>
<path d="M6.40636 1.81274H2.33156C2.03216 1.81274 1.77664 2.02921 1.72741 2.32454L1.0082 6.63977C0.978895 6.81565 1.02772 6.99624 1.16114 7.11453C1.49588 7.41133 2.24447 7.93761 3.34391 7.93761C4.87513 7.93761 5.89596 6.9168 5.89596 6.9168L6.40636 1.81274Z" stroke="currentColor" stroke-width="2"/>
<path d="M1.81958 7.93762V18.1457C1.81958 19.2733 2.73364 20.1874 3.8612 20.1874H18.1526C19.2801 20.1874 20.1942 19.2733 20.1942 18.1457V7.93762" stroke="currentColor" stroke-width="2"/>
<path d="M13.8991 20.1874V14.0625C13.8991 12.9349 12.9851 12.0209 11.8575 12.0209H9.8159C8.68836 12.0209 7.77429 12.9349 7.77429 14.0625V20.1874" stroke="currentColor" stroke-width="2" stroke-miterlimit="16"/>
</svg>
