<svg viewBox="0 0 22 16" fill="none" xmlns="http://www.w3.org/2000/svg">
<path d="M13 1H20.4C20.7314 1 21 1.26863 21 1.6V14.4C21 14.7314 20.7314 15 20.4 15H13M13 1V15M13 1H9M13 15H9M9 1H1.6C1.26863 1 1 1.26863 1 1.6V14.4C1 14.7314 1.26863 15 1.6 15H9M9 1V15" stroke="currentColor" stroke-width="2" stroke-linecap="round" stroke-linejoin="round"/>
<path d="M6 5.84878C6 5.43469 5.58681 5.15037 5.25061 5.3921C4.49323 5.93665 4 6.82552 4 7.82952C4 8.83352 4.49323 9.72242 5.25061 10.2669C5.58681 10.5086 6 10.2244 6 9.81032C6 8.55632 6 7.37692 6 5.84878Z" fill="currentColor"/>
<path d="M16 5.84878C16 5.43469 16.4132 5.15037 16.7494 5.3921C17.5068 5.93665 18 6.82552 18 7.82952C18 8.83352 17.5068 9.72242 16.7494 10.2669C16.4132 10.5086 16 10.2244 16 9.81032C16 8.55632 16 7.37692 16 5.84878Z" fill="currentColor"/>
</svg>
