<svg viewBox="0 0 30 31" fill="none" xmlns="http://www.w3.org/2000/svg">
<path d="M17.625 15.5L29.4375 3.6875C30.1875 2.9375 30.1875 1.8125 29.4375 1.0625C28.6875 0.3125 27.5625 0.3125 26.8125 1.0625L15 12.875L3.1875 1.0625C2.4375 0.3125 1.3125 0.3125 0.5625 1.0625C-0.1875 1.8125 -0.1875 2.9375 0.5625 3.6875L12.375 15.5L0.5625 27.3125C0.1875 27.6875 0 28.0625 0 28.625C0 29.75 0.75 30.5 1.875 30.5C2.4375 30.5 2.8125 30.3125 3.1875 29.9375L15 18.125L26.8125 29.9375C27.1875 30.3125 27.5625 30.5 28.125 30.5C28.6875 30.5 29.0625 30.3125 29.4375 29.9375C30.1875 29.1875 30.1875 28.0625 29.4375 27.3125L17.625 15.5Z" fill="currentColor"/>
</svg>
