<svg viewBox="0 0 25 25" fill="none" xmlns="http://www.w3.org/2000/svg">
<path d="M25 9.79109C25 8.36744 23.8621 7.20955 22.4643 7.20955H16.0932C16.5614 5.65176 17.1175 2.6816 15.3114 0.871143C14.7664 0.325098 14.0729 0.0160847 13.3582 0.000815839C12.6382 -0.0166343 12.0107 0.246209 11.5432 0.754808C11.2871 1.03494 11.1456 1.40391 11.1475 1.78655V2.04503C11.1475 4.70255 9.95786 7.16375 7.96536 8.62774C7.37636 9.06075 6.7291 9.40505 6.04357 9.65003C6.02732 9.33765 5.89416 9.04346 5.67145 8.82791C5.44873 8.61236 5.15338 8.49182 4.84607 8.49105H1.20393C0.884805 8.49143 0.578854 8.62062 0.353166 8.85029C0.127478 9.07996 0.000472553 9.39135 0 9.7162V23.7745C0.00037807 24.0994 0.127342 24.4109 0.35304 24.6406C0.578739 24.8704 0.884743 24.9996 1.20393 25H4.84679C5.16585 24.9995 5.47171 24.8703 5.69732 24.6406C5.92293 24.411 6.04988 24.0996 6.05036 23.7749V23.2757C8.17357 23.6407 10.3639 23.8243 12.6107 23.8243C15.1225 23.8243 17.7043 23.596 20.3379 23.1394C20.979 23.1212 21.5879 22.8494 22.0353 22.3817C22.4828 21.9139 22.7335 21.2871 22.7343 20.6342C22.7343 20.2143 22.6311 19.8188 22.4511 19.4708C23.4786 19.1509 24.2286 18.1766 24.2286 17.0275C24.2286 16.4894 24.0636 15.9913 23.7839 15.5791C24.1536 15.3586 24.4603 15.0437 24.6737 14.6654C24.887 14.2871 24.9995 13.8587 25 13.4225C25 12.7165 24.7107 12.0796 24.2475 11.6237C24.486 11.3842 24.6753 11.0989 24.8045 10.7843C24.9336 10.4697 25.0001 10.1321 25 9.79109ZM4.62179 23.5458H1.42857V9.94523H4.62179V23.5458ZM22.54 12.373C23.1086 12.373 23.5714 12.8438 23.5714 13.4229C23.5714 14.002 23.1086 14.4725 22.54 14.4725H18.3132C18.1238 14.4725 17.9421 14.5491 17.8081 14.6854C17.6742 14.8218 17.5989 15.0067 17.5989 15.1995C17.5989 15.3924 17.6742 15.5773 17.8081 15.7137C17.9421 15.85 18.1238 15.9266 18.3132 15.9266H21.7186C22.0054 15.9269 22.2803 16.043 22.4831 16.2495C22.6858 16.456 22.7998 16.7359 22.8 17.0278C22.7996 17.3196 22.6856 17.5994 22.4828 17.8057C22.2801 18.012 22.0052 18.128 21.7186 18.1283H19.2375C19.0481 18.1283 18.8664 18.2049 18.7324 18.3412C18.5985 18.4776 18.5232 18.6625 18.5232 18.8554C18.5232 19.0482 18.5985 19.2331 18.7324 19.3695C18.8664 19.5058 19.0481 19.5824 19.2375 19.5824H20.2725C20.5465 19.5827 20.8092 19.6937 21.0029 19.8909C21.1966 20.0882 21.3055 20.3556 21.3057 20.6345C21.3053 20.9134 21.1964 21.1807 21.0027 21.3778C20.809 21.575 20.5464 21.6859 20.2725 21.6863C20.2318 21.6863 20.1914 21.6899 20.1518 21.6968C15.2136 22.5588 10.4729 22.5911 6.05036 21.7986V11.1773C7.03826 10.885 7.96918 10.4213 8.80214 9.80672C11.1654 8.07006 12.5764 5.16861 12.5764 2.04503V1.78655C12.576 1.773 12.5798 1.75967 12.5871 1.74838C12.7746 1.54406 13.02 1.44663 13.3289 1.45463C13.6775 1.4619 14.0254 1.62295 14.3093 1.90761C16.0657 3.6679 14.4843 7.50512 14.4271 7.64035C14.3914 7.72106 14.3714 7.8094 14.3671 7.90211C14.3671 7.91156 14.3646 7.92101 14.3643 7.9301L14.3639 7.93664C14.3639 7.96136 14.3686 7.98499 14.3711 8.00935C14.3732 8.03117 14.3736 8.05298 14.3775 8.0737C14.3821 8.09915 14.3907 8.12314 14.3979 8.1475C14.4043 8.16858 14.4089 8.19003 14.4171 8.21003C14.425 8.23039 14.4361 8.24856 14.4457 8.26783C14.4575 8.2911 14.4682 8.31509 14.4825 8.33691C14.4907 8.34963 14.5011 8.36054 14.51 8.37253C14.5289 8.39871 14.5482 8.42452 14.5707 8.44779C14.5771 8.45433 14.585 8.45978 14.5914 8.46597C14.6186 8.49214 14.6464 8.51686 14.6779 8.53867C14.6814 8.54122 14.685 8.54231 14.6886 8.54485C14.7214 8.56667 14.7546 8.58775 14.7918 8.60411C14.8904 8.64847 14.9932 8.66591 15.0943 8.66373H22.4643C23.075 8.66373 23.5718 9.16906 23.5718 9.79072C23.5718 10.4124 23.0754 10.9184 22.4646 10.9184H17.8507C17.6613 10.9184 17.4796 10.995 17.3456 11.1314C17.2117 11.2678 17.1364 11.4527 17.1364 11.6455C17.1364 11.8384 17.2117 12.0233 17.3456 12.1597C17.4796 12.296 17.6613 12.3726 17.8507 12.3726H22.5396L22.54 12.373Z" fill="currentColor"/>
</svg>
