<svg viewBox="0 0 42 39" fill="none" xmlns="http://www.w3.org/2000/svg">
<path d="M36.5556 37.4397H5.44444C2.98984 37.4397 1 35.4499 1 32.9952V12.9952C1 10.5406 2.98984 8.55078 5.44444 8.55078H36.5556C39.0102 8.55078 41 10.5406 41 12.9952V32.9952C41 35.4499 39.0102 37.4397 36.5556 37.4397Z" stroke="currentColor" stroke-width="2"/>
<path d="M31 24.1063C30.3864 24.1063 29.8889 23.6088 29.8889 22.9952C29.8889 22.3816 30.3864 21.8841 31 21.8841C31.6135 21.8841 32.1111 22.3816 32.1111 22.9952C32.1111 23.6088 31.6135 24.1063 31 24.1063Z" stroke="currentColor" stroke-width="2" stroke-linecap="round" stroke-linejoin="round"/>
<path d="M34.3333 8.55082V5.44687C34.3333 2.52674 31.5653 0.400091 28.7438 1.15249L4.29927 7.67102C2.35371 8.18985 1 9.95185 1 11.9654V12.9953" stroke="currentColor" stroke-width="2"/>
</svg>
