<svg viewBox="0 0 22 22" fill="none" xmlns="http://www.w3.org/2000/svg">
<path d="M16.5556 10.5556V14.3334C16.5556 18.0152 13.5708 21 9.88889 21H7.66667C3.98477 21 1 18.0152 1 14.3334V10.5556C1 10.1874 1.29848 9.88892 1.66667 9.88892H15.8889C16.2571 9.88892 16.5556 10.1874 16.5556 10.5556Z" stroke="currentColor" stroke-width="2" stroke-linecap="round" stroke-linejoin="round"/>
<path d="M11 7.66665C11 6.55554 11.7937 5.44443 13.381 5.44443C15.1342 5.44443 16.5556 4.02311 16.5556 2.26983V1.55554" stroke="currentColor" stroke-width="2" stroke-linecap="round" stroke-linejoin="round"/>
<path d="M6.55554 7.66667V7.11111C6.55554 5.27017 8.04793 3.77778 9.88888 3.77778C11.1162 3.77778 12.1111 2.78286 12.1111 1.55556V1" stroke="currentColor" stroke-width="2" stroke-linecap="round" stroke-linejoin="round"/>
<path d="M15.4445 9.88892H18.2222C19.7563 9.88892 21 11.1326 21 12.6667C21 14.2008 19.7563 15.4445 18.2222 15.4445H16.5556" stroke="currentColor" stroke-width="2" stroke-linecap="round" stroke-linejoin="round"/>
</svg>
