<svg viewBox="0 0 48 43" fill="none" xmlns="http://www.w3.org/2000/svg">
<path fill-rule="evenodd" clip-rule="evenodd" d="M26.0887 3.19967C24.6647 1.89745 22.3559 1.89745 20.9319 3.19967L3.49885 19.142C2.07487 20.4443 2.07487 22.5557 3.49885 23.8579L20.9319 39.8002C22.3559 41.1024 24.6647 41.1024 26.0887 39.8002L43.5217 23.8579C44.9457 22.5557 44.9457 20.4443 43.5217 19.142L26.0887 3.19967ZM19.213 1.62776C21.5863 -0.542586 25.4344 -0.542586 27.8076 1.62776L45.2406 17.5701C47.6141 19.7405 47.6141 23.2595 45.2406 25.4298L27.8076 41.3721C25.4344 43.5426 21.5863 43.5426 19.213 41.3721L1.77996 25.4298C-0.59332 23.2595 -0.59332 19.7405 1.77996 17.5701L19.213 1.62776Z" fill="currentColor"/>
</svg>
