<svg viewBox="0 0 25 25" fill="none" xmlns="http://www.w3.org/2000/svg">
<path d="M0 15.2089C0 16.6326 1.13786 17.7904 2.53571 17.7904L8.90679 17.7904C8.43857 19.3482 7.8825 22.3184 9.68857 24.1289C10.2336 24.6749 10.9271 24.9839 11.6418 24.9992C12.3618 25.0166 12.9893 24.7538 13.4568 24.2452C13.7129 23.9651 13.8544 23.5961 13.8525 23.2135V22.955C13.8525 20.2975 15.0421 17.8363 17.0346 16.3723C17.6236 15.9393 18.2709 15.5949 18.9564 15.35C18.9727 15.6624 19.1058 15.9565 19.3286 16.1721C19.5513 16.3876 19.8466 16.5082 20.1539 16.509H23.7961C24.1152 16.5086 24.4211 16.3794 24.6468 16.1497C24.8725 15.92 24.9995 15.6086 25 15.2838L25 1.22551C24.9996 0.900604 24.8727 0.589115 24.647 0.359371C24.4213 0.129625 24.1153 0.000385284 23.7961 0H20.1532C19.8342 0.000480652 19.5283 0.129715 19.3027 0.359371C19.0771 0.589025 18.9501 0.900366 18.9496 1.22515V1.7243C16.8264 1.3593 14.6361 1.1757 12.3893 1.1757C9.8775 1.1757 7.29571 1.40401 4.66214 1.86063C4.02102 1.87879 3.4121 2.1506 2.96465 2.61835C2.51721 3.0861 2.26649 3.71295 2.26571 4.36582C2.26571 4.78571 2.36893 5.18125 2.54893 5.52916C1.52143 5.84908 0.771429 6.82338 0.771429 7.97255C0.771429 8.5106 0.936428 9.00865 1.21607 9.42091C0.846357 9.64136 0.539654 9.95633 0.326349 10.3346C0.113045 10.7129 0.000545502 11.1413 0 11.5775C0 12.2835 0.289286 12.9204 0.752501 13.3763C0.51404 13.6158 0.324715 13.9011 0.195532 14.2157C0.0663509 14.5303 -0.000114441 14.8679 0 15.2089ZM20.3782 1.45418H23.5714L23.5714 15.0548H20.3782L20.3782 1.45418ZM2.46 12.627C1.89143 12.627 1.42857 12.1562 1.42857 11.5771C1.42857 10.998 1.89143 10.5275 2.46 10.5275L6.68678 10.5275C6.87623 10.5275 7.05791 10.4509 7.19186 10.3146C7.32582 10.1782 7.40107 9.99329 7.40107 9.80045C7.40107 9.60762 7.32582 9.42268 7.19186 9.28632C7.05791 9.14997 6.87623 9.07336 6.68678 9.07336H3.28143C2.99464 9.07307 2.71968 8.95695 2.51693 8.75049C2.31417 8.54403 2.20019 8.26411 2.2 7.97219C2.20038 7.68038 2.31445 7.40065 2.51718 7.19434C2.71992 6.98804 2.99477 6.87202 3.28143 6.87173H5.7625C5.95194 6.87173 6.13362 6.79513 6.26758 6.65877C6.40153 6.52242 6.47678 6.33748 6.47678 6.14464C6.47678 5.95181 6.40153 5.76687 6.26758 5.63051C6.13362 5.49416 5.95194 5.41755 5.7625 5.41755H4.7275C4.4535 5.41726 4.19081 5.30631 3.99709 5.10906C3.80338 4.9118 3.69448 4.64437 3.69429 4.36545C3.69466 4.08663 3.80364 3.81934 3.99732 3.62219C4.19101 3.42503 4.45359 3.3141 4.7275 3.31372C4.76821 3.31372 4.80857 3.31008 4.84821 3.30317C9.78643 2.44121 14.5271 2.40885 18.9496 3.20138L18.9496 13.8227C17.9617 14.115 17.0308 14.5787 16.1979 15.1933C13.8346 16.9299 12.4236 19.8314 12.4236 22.955V23.2135C12.424 23.227 12.4202 23.2403 12.4129 23.2516C12.2254 23.4559 11.98 23.5534 11.6711 23.5454C11.3225 23.5381 10.9746 23.377 10.6907 23.0924C8.93428 21.3321 10.5157 17.4949 10.5729 17.3596C10.6086 17.2789 10.6286 17.1906 10.6329 17.0979C10.6329 17.0884 10.6354 17.079 10.6357 17.0699L10.6361 17.0634C10.6361 17.0386 10.6314 17.015 10.6289 16.9906C10.6268 16.9688 10.6264 16.947 10.6225 16.9263C10.6179 16.9009 10.6093 16.8769 10.6021 16.8525C10.5957 16.8314 10.5911 16.81 10.5829 16.79C10.575 16.7696 10.5639 16.7514 10.5543 16.7322C10.5425 16.7089 10.5318 16.6849 10.5175 16.6631C10.5093 16.6504 10.4989 16.6395 10.49 16.6275C10.4711 16.6013 10.4518 16.5755 10.4293 16.5522C10.4229 16.5457 10.415 16.5402 10.4086 16.534C10.3814 16.5079 10.3536 16.4831 10.3221 16.4613C10.3186 16.4588 10.315 16.4577 10.3114 16.4551C10.2786 16.4333 10.2454 16.4122 10.2082 16.3959C10.1096 16.3515 10.0068 16.3341 9.90571 16.3363L2.53571 16.3363C1.925 16.3363 1.42821 15.8309 1.42821 15.2093C1.42821 14.5876 1.92464 14.0816 2.53536 14.0816L7.14929 14.0816C7.33873 14.0816 7.52041 14.005 7.65436 13.8686C7.78832 13.7322 7.86357 13.5473 7.86357 13.3545C7.86357 13.1616 7.78832 12.9767 7.65436 12.8403C7.52041 12.704 7.33873 12.6274 7.14929 12.6274L2.46036 12.6274L2.46 12.627Z" fill="currentColor"/>
</svg>
